<svg width="12" height="14" viewBox="0 0 12 14" fill="none" xmlns="http://www.w3.org/2000/svg">
<path d="M11.2373 4.95201L9.808 13.4853C9.7856 13.6078 9.72108 13.7185 9.62563 13.7984C9.53017 13.8783 9.40979 13.9222 9.28533 13.9227H2.71466C2.5902 13.9222 2.46982 13.8783 2.37437 13.7984C2.27891 13.7185 2.2144 13.6078 2.192 13.4853L0.762665 4.95201C0.750353 4.87607 0.754618 4.79836 0.775168 4.72421C0.795719 4.65007 0.832067 4.58125 0.881719 4.52248C0.931371 4.46371 0.993152 4.41637 1.06282 4.38373C1.13249 4.35108 1.2084 4.3339 1.28533 4.33335H10.704C10.7818 4.33234 10.8589 4.34839 10.9299 4.38036C11.0009 4.41233 11.064 4.45944 11.1148 4.5184C11.1657 4.57736 11.203 4.64673 11.2241 4.72164C11.2453 4.79654 11.2498 4.87518 11.2373 4.95201ZM11.8667 2.73335C11.8667 2.8748 11.8105 3.01045 11.7105 3.11047C11.6104 3.21049 11.4748 3.26668 11.3333 3.26668H0.666665C0.525216 3.26668 0.389561 3.21049 0.289541 3.11047C0.189522 3.01045 0.133331 2.8748 0.133331 2.73335C0.133331 2.5919 0.189522 2.45624 0.289541 2.35622C0.389561 2.2562 0.525216 2.20001 0.666665 2.20001H3.33333V0.600014C3.33333 0.458565 3.38952 0.32291 3.48954 0.222891C3.58956 0.122871 3.72522 0.0666809 3.86666 0.0666809H8.13333C8.27478 0.0666809 8.41044 0.122871 8.51046 0.222891C8.61048 0.32291 8.66667 0.458565 8.66667 0.600014V2.20001H11.3333C11.4748 2.20001 11.6104 2.2562 11.7105 2.35622C11.8105 2.45624 11.8667 2.5919 11.8667 2.73335ZM7.6 2.20001V1.13335H4.4V2.20001H7.6Z" fill="#B80020"/>
</svg>
